<svg width="24" height="24" viewBox="0 0 24 24" class="fill-current">
  <path d="M7.443 5.34961C8.082 5.34961 8.673 5.39961 9.213 5.54761C9.70302 5.63765 10.1708 5.82244 10.59 6.09161C10.984 6.33861 11.279 6.68561 11.475 7.13061C11.672 7.57561 11.77 8.12061 11.77 8.71361C11.77 9.40661 11.623 9.99961 11.279 10.4446C10.984 10.8906 10.492 11.2856 9.902 11.5826C10.738 11.8306 11.377 12.2756 11.77 12.8686C12.164 13.4626 12.41 14.2046 12.41 15.0456C12.41 15.7386 12.262 16.3316 12.016 16.8266C11.77 17.3216 11.377 17.7666 10.934 18.0636C10.4528 18.382 9.92084 18.616 9.361 18.7556C8.771 18.9046 8.181 19.0036 7.591 19.0036H1V5.34961H7.443ZM7.049 10.8896C7.59 10.8896 8.033 10.7416 8.377 10.4946C8.721 10.2476 8.869 9.80161 8.869 9.25761C8.869 8.96061 8.819 8.66361 8.721 8.46661C8.623 8.26861 8.475 8.11961 8.279 7.97161C8.082 7.87261 7.885 7.77361 7.639 7.72461C7.393 7.67461 7.148 7.67461 6.852 7.67461H4V10.8906H7.05L7.049 10.8896ZM7.197 16.7276C7.492 16.7276 7.787 16.6776 8.033 16.6286C8.28138 16.5814 8.51628 16.48 8.721 16.3316C8.92139 16.1868 9.08903 16.0015 9.213 15.7876C9.311 15.5406 9.41 15.2436 9.41 14.8976C9.41 14.2046 9.213 13.7096 8.82 13.3636C8.426 13.0666 7.885 12.9186 7.246 12.9186H4V16.7286H7.197V16.7276ZM16.689 16.6776C17.082 17.0736 17.672 17.2716 18.459 17.2716C19 17.2716 19.492 17.1236 19.885 16.8766C20.279 16.5796 20.525 16.2826 20.623 15.9856H23.033C22.639 17.1726 22.049 18.0136 21.263 18.5576C20.475 19.0526 19.541 19.3496 18.41 19.3496C17.6864 19.3518 16.9688 19.2175 16.295 18.9536C15.6887 18.7262 15.148 18.3524 14.721 17.8656C14.2643 17.4102 13.9267 16.8494 13.738 16.2326C13.492 15.5896 13.393 14.8976 13.393 14.1056C13.393 13.3636 13.492 12.6716 13.738 12.0276C13.9745 11.4077 14.3245 10.8373 14.77 10.3456C15.213 9.90061 15.754 9.50561 16.344 9.25761C17.0007 8.99367 17.7022 8.8592 18.41 8.86161C19.246 8.86161 19.984 9.01061 20.623 9.35661C21.263 9.70261 21.754 10.0986 22.148 10.6926C22.5499 11.2631 22.8494 11.8993 23.033 12.5726C23.131 13.2646 23.18 13.9576 23.131 14.7486H16C16 15.5406 16.295 16.2826 16.689 16.6786V16.6776ZM19.787 11.4836C19.443 11.1376 18.902 10.9396 18.262 10.9396C17.82 10.9396 17.475 11.0386 17.18 11.1866C16.885 11.3356 16.689 11.5336 16.492 11.7316C16.311 11.9229 16.1912 12.1638 16.148 12.4236C16.098 12.6716 16.049 12.8686 16.049 13.0666H20.475C20.377 12.3246 20.131 11.8306 19.787 11.4836ZM15.459 6.28961H20.967V7.62561H15.46V6.28961H15.459Z"></path>
</svg>
